<?xml version="1.0" encoding="utf-8"?>
<!-- Generator: Adobe Illustrator 16.0.0, SVG Export Plug-In . SVG Version: 6.00 Build 0)  -->
<!DOCTYPE svg PUBLIC "-//W3C//DTD SVG 1.1//EN" "http://www.w3.org/Graphics/SVG/1.1/DTD/svg11.dtd">
<svg version="1.1" id="Layer_1" xmlns="http://www.w3.org/2000/svg" xmlns:xlink="http://www.w3.org/1999/xlink" x="0px" y="0px"
	 width="40px" height="40px" viewBox="0 0 40 40" enable-background="new 0 0 40 40" xml:space="preserve">
<g>
	<g transform="matrix( 1, 0, 0, 1, 0,0) ">
		<g>
			<g id="Layer0_5_MEMBER_0_FILL">
				<path fill="#9A1284" d="M12.9,1.25c-2.6,0.967-4.95,2.5-7.05,4.601C1.95,9.75,0,14.467,0,20s1.95,10.234,5.85,14.101
					C9.783,38.033,14.5,40,20,40c5.533,0,10.25-1.967,14.15-5.899C38.051,30.234,40,25.533,40,20S38.051,9.75,34.15,5.851
					c-2.1-2.101-4.434-3.634-7-4.601C24.949,0.417,22.566,0,20,0C17.467,0,15.1,0.417,12.9,1.25z"/>
			</g>
		</g>
	</g>
	<g transform="matrix( 1, 0, 0, 1, -47.35,305.65) ">
		<g>
			<defs>
				<rect id="SVGID_1_" x="56.95" y="-283.349" width="20.8" height="16.25"/>
			</defs>
			<clipPath id="SVGID_2_">
				<use xlink:href="#SVGID_1_"  overflow="visible"/>
			</clipPath>
			<text transform="matrix(1 0 0 1 59.0497 -271.7496)" fill="#FFFFFF" font-family="'ArialMT'" font-size="9">free</text>
		</g>
	</g>
	<g transform="matrix( 1, 0, 0, 1, 0,0) ">
		<g>
			<g id="Layer0_5_MEMBER_1_MEMBER_0_FILL">
				<path fill="#FFFFFF" d="M11.3,6.4c-0.034-0.067-0.1-0.134-0.2-0.2c-0.067-0.033-0.15-0.05-0.25-0.05L8.1,6.8
					C8.067,6.8,8.05,6.833,8.05,6.9H8.1l2.05,0.35c0.167,0.033,0.267,0.117,0.3,0.25l0.1,0.3l-2.3,2.851
					c-0.1,0.1-0.15,0.233-0.15,0.399c0.033,0.101,0.083,0.2,0.15,0.301l0.45,0.5c0.1,0.1,0.217,0.166,0.35,0.199
					C9.184,12.084,9.3,12.066,9.4,12l0.45-0.2c0.133-0.066,0.283-0.1,0.45-0.1h1.95c0.133,0,0.233,0.066,0.3,0.2l1.55,3.649
					l0.05,0.051c0.2,0.566,0.534,1.466,1,2.699c0.067,0.134,0.1,0.284,0.1,0.45v2.75c0,0.167-0.05,0.301-0.15,0.4l-1.15,1.6
					c-0.067,0.066-0.083,0.134-0.05,0.2c0.067,0.101,0.133,0.15,0.2,0.15h1.4c0.133,0,0.25-0.05,0.35-0.15
					c0.1-0.033,0.167-0.116,0.2-0.25l1-4.3c0.033-0.267,0.05-0.55,0.05-0.851v-0.699l0.3,0.1c0.267,0.1,0.55,0.15,0.85,0.15
					L21.551,18c0.166,0.167,0.35,0.3,0.549,0.4v1.7c0,0.167,0.051,0.3,0.15,0.399c0.133,0.134,0.283,0.2,0.449,0.2
					c0.201,0,0.367-0.066,0.5-0.2c0.102-0.1,0.15-0.232,0.15-0.399V19c0.234,0.033,0.5,0.05,0.801,0.05h0.199v1.051
					c0,0.167,0.051,0.3,0.15,0.399c0.166,0.134,0.334,0.2,0.5,0.2s0.316-0.066,0.449-0.2c0.135-0.1,0.201-0.232,0.201-0.399V18.8
					c0.266-0.166,0.516-0.333,0.75-0.5c0.1-0.033,0.184-0.083,0.25-0.149v0.55l0.4,0.55c0.133,0.167,0.199,0.384,0.199,0.65v1.9
					c0,0.1-0.033,0.232-0.1,0.399l-0.5,1.3c-0.033,0.101-0.033,0.184,0,0.25c0.033,0.101,0.115,0.15,0.25,0.15h1.25
					c0.133,0,0.232-0.05,0.299-0.15c0.102-0.066,0.15-0.166,0.15-0.3l0.25-4.6c0-0.134-0.016-0.25-0.049-0.351l-0.4-1.399
					c-0.066-0.2-0.084-0.4-0.051-0.601l0.701-2.75c0-0.133,0.033-0.25,0.1-0.35l0.35-0.5c0.133-0.2,0.184-0.417,0.15-0.65L29.6,10.5
					c0.268,0.033,0.484,0.167,0.65,0.4c0.232,0.2,0.367,0.45,0.4,0.75l0.1,3.25c-0.268,0.366-0.4,0.733-0.4,1.1
					c-0.033,0.4,0.1,0.816,0.4,1.25c0.1,0.233,0.232,0.4,0.4,0.5l0.4-0.5c0.299-0.399,0.465-0.8,0.5-1.2
					c0-0.466-0.184-0.933-0.551-1.399l-0.051-3.101c-0.066-0.566-0.316-1.033-0.75-1.399c-0.434-0.367-0.934-0.55-1.5-0.55
					L29.051,9.55H17.1c-0.133,0-0.267-0.033-0.4-0.1L12.5,7.5c0-0.366,0.1-0.8,0.3-1.3c0.033-0.066,0.017-0.15-0.05-0.25
					c-0.066-0.066-0.15-0.066-0.25,0c-0.4,0.167-0.75,0.434-1.05,0.8L11.3,6.4z"/>
			</g>
		</g>
	</g>
</g>
</svg>
