<?xml version="1.0" encoding="utf-8"?>
<!-- Generator: Adobe Illustrator 16.0.0, SVG Export Plug-In . SVG Version: 6.00 Build 0)  -->
<!DOCTYPE svg PUBLIC "-//W3C//DTD SVG 1.1//EN" "http://www.w3.org/Graphics/SVG/1.1/DTD/svg11.dtd">
<svg version="1.1" id="Layer_1" xmlns="http://www.w3.org/2000/svg" xmlns:xlink="http://www.w3.org/1999/xlink" x="0px" y="0px"
	 width="40px" height="40px" viewBox="0 0 40 40" enable-background="new 0 0 40 40" xml:space="preserve">
<g>
	<g transform="matrix( 1, 0, 0, 1, 0,0) ">
		<g>
			<g id="Layer0_45_FILL">
				<path fill="#9A1284" d="M20,0c-2.533,0-4.9,0.416-7.1,1.25c-2.6,0.967-4.95,2.5-7.05,4.6C1.95,9.75,0,14.467,0,20
					s1.95,10.232,5.85,14.1C9.783,38.033,14.5,40,20,40c5.533,0,10.25-1.967,14.15-5.9C38.05,30.232,40,25.533,40,20
					S38.05,9.75,34.15,5.85c-2.101-2.1-4.434-3.633-7-4.6C24.95,0.416,22.566,0,20,0z"/>
			</g>
		</g>
	</g>
	<g transform="matrix( 0.7173614501953125, 0, 0, 0.7173614501953125, 1.5,1129.6) ">
		<g>
			<g id="Layer0_45_MEMBER_0_FILL">
				<path fill="#FFFFFF" d="M14.702-1564.237c-1.733,0-3.233,0.617-4.5,1.85c-1.233,1.266-1.85,2.766-1.85,4.499
					c0,1.467,0.467,2.784,1.4,3.951c2.233-3.967,5.417-6.733,9.55-8.3C18.069-1563.571,16.536-1564.237,14.702-1564.237
					 M41.602-1545.237c0-4.367-1.549-8.1-4.65-11.201c-3.066-3.1-6.782-4.649-11.149-4.649c-4.366,0-8.1,1.549-11.2,4.649
					c-3.1,3.101-4.65,6.834-4.65,11.201c0,4.366,1.55,8.1,4.65,11.2c3.1,3.1,6.834,4.65,11.2,4.65c4.367,0,8.084-1.551,11.149-4.65
					C40.053-1537.137,41.602-1540.871,41.602-1545.237 M37.652-1545.237c0,3.266-1.149,6.066-3.45,8.399
					c-2.333,2.333-5.132,3.5-8.399,3.5c-3.3,0-6.1-1.167-8.4-3.5c-2.333-2.333-3.5-5.134-3.5-8.399c0-3.267,1.167-6.067,3.5-8.401
					c2.3-2.299,5.1-3.45,8.4-3.45c3.267,0,6.066,1.15,8.399,3.45C36.503-1551.304,37.652-1548.504,37.652-1545.237 M34.052-1542.937
					c0.299-0.3,0.451-0.666,0.451-1.1v-0.799c0-0.434-0.151-0.801-0.451-1.101c-0.332-0.332-0.716-0.5-1.149-0.5h-5.95v-5.9
					c0-0.433-0.151-0.817-0.451-1.15c-0.299-0.3-0.666-0.449-1.1-0.449h-0.8c-0.434,0-0.817,0.15-1.15,0.449
					c-0.299,0.333-0.45,0.717-0.45,1.15v7.101c0.2,1.1,0.45,1.783,0.75,2.05c0.3,0.299,0.984,0.55,2.05,0.749h7.101
					C33.336-1542.438,33.72-1542.604,34.052-1542.937 M41.352-1562.387c-1.233-1.233-2.732-1.85-4.499-1.85
					c-1.834,0-3.367,0.666-4.6,2c4.133,1.567,7.316,4.333,9.55,8.3c0.934-1.167,1.401-2.483,1.401-3.951
					C43.203-1559.62,42.585-1561.121,41.352-1562.387z"/>
			</g>
		</g>
	</g>
</g>
</svg>
