<?xml version="1.0" encoding="utf-8"?>
<!-- Generator: Adobe Illustrator 16.0.0, SVG Export Plug-In . SVG Version: 6.00 Build 0)  -->
<!DOCTYPE svg PUBLIC "-//W3C//DTD SVG 1.1//EN" "http://www.w3.org/Graphics/SVG/1.1/DTD/svg11.dtd">
<svg version="1.1" id="Layer_1" xmlns="http://www.w3.org/2000/svg" xmlns:xlink="http://www.w3.org/1999/xlink" x="0px" y="0px"
	 width="40px" height="40px" viewBox="0 0 40 40" enable-background="new 0 0 40 40" xml:space="preserve">
<g>
	<g transform="matrix( 1, 0, 0, 1, 0,0) ">
		<g>
			<g id="Layer0_27_FILL">
				<path fill="#EA184E" d="M12.85,1.25c-2.552,0.969-4.885,2.503-7,4.6C1.95,9.75,0,14.467,0,20s1.95,10.234,5.85,14.1
					C9.783,38.033,14.5,40,20,40c5.533,0,10.25-1.967,14.15-5.9C38.051,30.234,40,25.533,40,20S38.051,9.75,34.15,5.85
					c-2.098-2.097-4.432-3.631-7-4.6C24.941,0.417,22.559,0,20,0C17.458,0,15.074,0.417,12.85,1.25z"/>
			</g>
		</g>
	</g>
	<g transform="matrix( 0.26531982421875, 0, 0, 0.26531982421875, -53.25,141.55) ">
		<g>
			<g id="Layer0_27_MEMBER_0_MEMBER_0_MEMBER_0_FILL">
				<path fill="#FFFFFF" d="M279.873-500.824c2.267-3.666,3.401-6.85,3.401-9.55c0-2.7-1.134-5.9-3.401-9.599l-3.449-4.75
					l-3.399,4.75c-2.267,3.699-3.401,6.899-3.401,9.599c0,2.7,1.134,5.884,3.401,9.55c1.132,1.868,2.265,3.451,3.399,4.752
					C277.556-497.373,278.708-498.956,279.873-500.824z"/>
			</g>
		</g>
	</g>
	<g transform="matrix( 0.26531982421875, 0, 0, 0.26531982421875, -53.25,141.55) ">
		<g>
			<g id="Layer0_27_MEMBER_0_MEMBER_0_MEMBER_1_FILL">
				<path fill="#FFFFFF" d="M288.67-498.923c-4.093,1.299-7.082,3.049-8.946,5.251c-1.299,1.533-2.449,3.732-3.449,6.599
					c-0.935-2.834-2.067-5.033-3.401-6.599c-1.899-2.201-4.882-3.951-8.95-5.251l-5.55-1.301l1.101,6.5
					c1.101,4.768,2.6,8.267,4.5,10.501c2.1,2.466,5.517,4.351,10.251,5.65l2.05,0.501l2.098-0.501
					c4.732-1.299,8.147-3.184,10.253-5.65c1.862-2.234,3.364-5.733,4.498-10.501l1.097-6.5
					C292.557-500.023,290.709-499.589,288.67-498.923z"/>
			</g>
		</g>
	</g>
	<g transform="matrix( 1.3618621826171875, 0, 0, 1.3618621826171875, -8.9,-91.75) ">
		<g>
			<g id="Layer0_27_MEMBER_0_MEMBER_0_MEMBER_2_FILL">
				<path fill="#FFFFFF" d="M24.736,78.183c-0.334,0.034-0.701,0.1-1.1,0.2c-0.8,0.267-1.384,0.617-1.751,1.05
					c-0.233,0.3-0.45,0.733-0.65,1.3c-0.2-0.567-0.417-1-0.65-1.3c-0.4-0.433-0.983-0.783-1.75-1.05l-1.1-0.2l0.2,1.25
					c0.233,0.933,0.533,1.617,0.9,2.05c0.333,0.366,0.833,0.683,1.5,0.95v1.85h1.8v-1.85c0.667-0.267,1.166-0.583,1.5-0.95
					c0.366-0.433,0.65-1.117,0.849-2.05L24.736,78.183z"/>
			</g>
		</g>
	</g>
	<g transform="matrix( 1, 0, 0, 1, -47.35,261.9) ">
		<g>
			<defs>
				<rect id="SVGID_1_" x="56.95" y="-239.599" width="20.8" height="16.25"/>
			</defs>
			<clipPath id="SVGID_2_">
				<use xlink:href="#SVGID_1_"  overflow="visible"/>
			</clipPath>
			<text transform="matrix(1 0 0 1 59.0497 -227.9996)" fill="#FFFFFF" font-family="'ArialMT'" font-size="9">free</text>
		</g>
	</g>
</g>
</svg>
