<?xml version="1.0" encoding="utf-8"?>
<!-- Generator: Adobe Illustrator 16.0.0, SVG Export Plug-In . SVG Version: 6.00 Build 0)  -->
<!DOCTYPE svg PUBLIC "-//W3C//DTD SVG 1.1//EN" "http://www.w3.org/Graphics/SVG/1.1/DTD/svg11.dtd">
<svg version="1.1" id="Layer_1" xmlns="http://www.w3.org/2000/svg" xmlns:xlink="http://www.w3.org/1999/xlink" x="0px" y="0px"
	 width="40px" height="40px" viewBox="0 0 40 40" enable-background="new 0 0 40 40" xml:space="preserve">
<g>
	<g transform="matrix( 1, 0, 0, 1, 0,0) ">
		<g>
			<g id="Layer0_44_MEMBER_0_FILL">
				<path fill="#EA184E" d="M20,0c-2.533,0-4.9,0.416-7.1,1.25c-2.6,0.967-4.95,2.5-7.05,4.6C1.95,9.75,0,14.467,0,20
					s1.95,10.233,5.85,14.1C9.783,38.033,14.5,40,20,40c5.533,0,10.25-1.967,14.15-5.9C38.051,30.233,40,25.533,40,20
					S38.051,9.75,34.15,5.85c-2.1-2.1-4.434-3.633-7-4.6C24.949,0.416,22.566,0,20,0z"/>
			</g>
		</g>
	</g>
	<g transform="matrix( 0.7451629638671875, 0, 0, 0.7456207275390625, 3.1,1076.15) ">
		<g>
			<g id="Layer0_44_MEMBER_1_FILL">
				<path fill="#FFFFFF" d="M34.702-1412.237c5.465-6.567,6.215-12.017,2.249-16.349c-1.701-1.834-3.984-2.401-6.851-1.7
					c-2.899,0.699-5.35,2.449-7.348,5.249c-2.467-2.967-5.067-4.766-7.8-5.4c-2.666-0.633-4.85-0.017-6.55,1.851
					c-3.966,4.333-3.217,9.782,2.25,16.349c4.1,4.9,8.1,8.233,12,10l0.05,0.05v-0.05C26.601-1404.004,30.6-1407.338,34.702-1412.237
					z"/>
			</g>
		</g>
	</g>
</g>
</svg>
